<?xml version="1.0" encoding="UTF-8" standalone="no"?>
<!DOCTYPE svg PUBLIC "-//W3C//DTD SVG 1.1//EN"
 "http://www.w3.org/Graphics/SVG/1.1/DTD/svg11.dtd">
<!-- Generated by graphviz version 2.40.1 (20161225.0304)
 -->
<!-- Title: G Pages: 1 -->
<svg width="513pt" height="186pt"
 viewBox="0.00 0.00 513.18 186.00" xmlns="http://www.w3.org/2000/svg" xmlns:xlink="http://www.w3.org/1999/xlink">
<g id="graph0" class="graph" transform="scale(1 1) rotate(0) translate(4 182)">
<title>G</title>
<polygon fill="#ffffff" stroke="transparent" points="-4,4 -4,-182 509.1753,-182 509.1753,4 -4,4"/>
<g id="clust1" class="cluster">
<title>cluster_Global</title>
<path fill="none" stroke="#c0c0c0" d="M346.1753,-8C346.1753,-8 485.1753,-8 485.1753,-8 491.1753,-8 497.1753,-14 497.1753,-20 497.1753,-20 497.1753,-158 497.1753,-158 497.1753,-164 491.1753,-170 485.1753,-170 485.1753,-170 346.1753,-170 346.1753,-170 340.1753,-170 334.1753,-164 334.1753,-158 334.1753,-158 334.1753,-20 334.1753,-20 334.1753,-14 340.1753,-8 346.1753,-8"/>
<text text-anchor="middle" x="415.6753" y="-157.2" font-family="Times,serif" font-size="11.00" fill="#c0c0c0">Global</text>
</g>
<g id="clust2" class="cluster">
<title>cluster_\OneSignal</title>
<path fill="none" stroke="#c0c0c0" d="M354.1753,-16C354.1753,-16 477.1753,-16 477.1753,-16 483.1753,-16 489.1753,-22 489.1753,-28 489.1753,-28 489.1753,-130 489.1753,-130 489.1753,-136 483.1753,-142 477.1753,-142 477.1753,-142 354.1753,-142 354.1753,-142 348.1753,-142 342.1753,-136 342.1753,-130 342.1753,-130 342.1753,-28 342.1753,-28 342.1753,-22 348.1753,-16 354.1753,-16"/>
<text text-anchor="middle" x="415.6753" y="-129.2" font-family="Times,serif" font-size="11.00" fill="#c0c0c0">OneSignal</text>
</g>
<!-- \\OneSignal\\OneSignalProvider -->
<g id="node1" class="node">
<title>\\OneSignal\\OneSignalProvider</title>
<polygon fill="none" stroke="#000000" points="481.1753,-114 350.1753,-114 350.1753,-78 481.1753,-78 481.1753,-114"/>
<text text-anchor="middle" x="415.6753" y="-93.2" font-family="Courier,monospace" font-size="11.00" fill="#000000">OneSignalProvider</text>
</g>
<!-- \\Illuminate\\Support\\ServiceProvider -->
<g id="node3" class="node">
<title>\\Illuminate\\Support\\ServiceProvider</title>
<ellipse fill="none" stroke="#000000" cx="139.0877" cy="-96" rx="139.1754" ry="18"/>
<text text-anchor="middle" x="139.0877" y="-92.3" font-family="Times,serif" font-size="14.00" fill="#c0c0c0">\Illuminate\Support\ServiceProvider</text>
</g>
<!-- \\OneSignal\\OneSignalProvider&#45;&gt;\\Illuminate\\Support\\ServiceProvider -->
<g id="edge1" class="edge">
<title>\\OneSignal\\OneSignalProvider&#45;&gt;\\Illuminate\\Support\\ServiceProvider</title>
<path fill="none" stroke="#000000" d="M350.1279,-96C331.3725,-96 310.1217,-96 288.506,-96"/>
<polygon fill="none" stroke="#000000" points="288.2172,-92.5001 278.2171,-96 288.2171,-99.5001 288.2172,-92.5001"/>
</g>
<!-- \\OneSignal\\Notifications -->
<g id="node2" class="node">
<title>\\OneSignal\\Notifications</title>
<polygon fill="none" stroke="#000000" points="467.6753,-60 363.6753,-60 363.6753,-24 467.6753,-24 467.6753,-60"/>
<text text-anchor="middle" x="415.6753" y="-39.2" font-family="Courier,monospace" font-size="11.00" fill="#000000">Notifications</text>
</g>
</g>
</svg>
